solid 1
   facet normal -9.053729e-016 6.188739e-016 1.000000e+000
      outer loop
         vertex -3.050693e-002 2.079927e-002 1.960000e-001
         vertex -3.528228e-002 1.088314e-002 1.960000e-001
         vertex -1.734723e-016 1.288244e-016 1.960000e-001
      endloop
   endfacet
   facet normal -9.053729e-016 6.188739e-016 1.000000e+000
      outer loop
         vertex -1.734723e-016 1.288244e-016 1.960000e-001
         vertex -3.528228e-002 1.088314e-002 1.960000e-001
         vertex -3.692265e-002 1.197809e-016 1.960000e-001
      endloop
   endfacet
endsolid
